<svg xmlns="http://www.w3.org/2000/svg" viewBox="0 0 1030.96 375.23" role="img" aria-label="Home">
  <path fill="currentColor" d="M834.95,115.12c0,17.3-14.02,31.32-31.32,31.32s-31.32-14.02-31.32-31.32,14.02-31.32,31.32-31.32,31.32,14.02,31.32,31.32ZM823.04,98.05c-10.29-11.98-27.91-11.97-38.92-.04l38.92.04ZM829.23,111.73c-.59-3.76-1.44-6.49-2.83-8.78l-45.41-.11c-1.2,2.91-2.04,5.68-2.71,8.88h50.95ZM827.22,126.05c1.12-3.5,1.67-5.91,2.04-9.06l-51.1-.03c.37,3.47.99,6.1,2.08,9.07l46.98.02ZM823.26,130.97l-39.82.06c4.56,6.26,11.94,9.83,19.36,9.88,7.96.05,16.04-2.73,20.46-9.94Z"/>
  <path fill="currentColor" d="M217.49,196.78l.03,104.58-115.31.03-.03-104.58,115.31-.03ZM211.52,202.72l-103.5.02.02,92.75,103.5-.02-.02-92.75Z"/>
  <path fill="currentColor" d="M244.75,198.8v100.58h-24.62v-100.58h24.62ZM239.72,246.28l-.06-42.14-14.32.09.02,42.07,14.36-.03ZM239.72,293.72l-.05-41.96-14.37-.04.17,42.13,14.25-.14Z"/>
  <path fill="currentColor" d="M99.16,198.72l.08,100.66-24.52.02-.08-100.66,24.52-.02ZM79.62,204.14l-.02,42.31h14.59s.02-42.31.02-42.31h-14.59ZM79.67,251.65l-.03,42.16h14.54s.03-42.15.03-42.15h-14.54Z"/>
  <path fill="currentColor" d="M328.43,196.8h87.81v104.57h-87.81v-104.57ZM334.43,202.71v92.77s75.84,0,75.84,0v-92.77s-75.84,0-75.84,0Z"/>
  <path fill="currentColor" d="M325.2,198.74v100.64h-23.48v-100.64h23.48ZM306.67,204.12l-.06,42.32,13.53.02.06-42.32-13.53-.02ZM306.62,251.66l-.03,42.16h13.58s.03-42.15.03-42.15h-13.58Z"/>
  <path fill="currentColor" d="M418.74,198.7h22.95s-.05,100.72-.05,100.72h-22.95s.05-100.72.05-100.72ZM423.74,204.08v42.36s12.97,0,12.97,0v-42.36s-12.97,0-12.97,0ZM436.7,251.62h-13.02v42.24h13.02v-42.24Z"/>
  <path fill="currentColor" d="M553.7,276.1l-41.17.04.06-16.24,40.89-.19c.78,5.71.77,10.11.21,16.39ZM517.37,264.94v6.06h31.76v-6.06h-31.76Z"/>
  <path fill="currentColor" d="M554,314.01l-41.44.02-.13-16.31,41.35-.15.22,16.44ZM517.41,302.67v6.41s31.77.04,31.77.04v-6.41s-31.77-.04-31.77-.04Z"/>
  <path fill="currentColor" d="M553.86,238.14l-41.37.06.1-15.93,40.93-.05c.61,5.25.63,9,.34,15.92ZM549.1,227.14l-31.72.07v6.04s31.73-.07,31.73-.07v-6.04Z"/>
  <rect fill="currentColor" x="420.64" y="269.03" width="126.24" height="5" transform="translate(212.03 755.19) rotate(-89.98)"/>
  <rect fill="currentColor" x="517.76" y="269.1" width="126.27" height="4.77" transform="translate(309.26 852.31) rotate(-89.98)"/>
  <path fill="currentColor" d="M1027.45,368.67l-25.3-.07v-183.83s25.67-.19,25.67-.19h3.13l-.02-34.86L808.19,1.16c-3.21-1.66-6.37-1.58-9.46.5l-100.46,67.78-522.5-.04-10.57-6.62c-5.17-3.31-10.94-2.37-16.19,1.07L.42,160.88v23.86l31.44.16.03,183.7-27.85.1c-1.53,0-3.85,1.51-4.01,2.8-.2,1.65.72,3.71,4.35,3.71h1022.47c2.62.01,4.29-2.09,4.03-3.72-.18-1.1-2.29-2.82-3.42-2.83ZM688.34,75.98l-108.72,73.56v18.63l-265.8-.05v-7.89l-127.96-84.24h502.48ZM31.86,167.17v11.15l-24.93.02.08-13.58,146.66-95.83c3.36-2.19,6.25-1.68,9.44.43l144.2,95.34v13.63l-24.83-.1v-11.38l-120.18-79.84c-2.62-1.75-6.2-1.48-8.84.26L31.86,167.17ZM275.97,368.59l-237.5.08-.19-178.5v-19.41l119.92-78.4,117.77,78.47v197.75ZM463.91,368.7v-16.93s135.8-.02,135.8-.02v16.93s-135.8.02-135.8.02ZM471.6,346.69v-146.89h20.98v146.89h-20.98ZM497.41,199.84h70.27s.02,146.85.02,146.85h-70.27s-.02-146.85-.02-146.85ZM572.6,199.83h20.39s.1,146.87.1,146.87h-20.39s-.1-146.87-.1-146.87ZM944.14,247.31v37.57s-283.43-.02-283.43-.02v-37.57s283.43.02,283.43.02ZM660.72,203.25l283.43-.02v39.99s-283.43.02-283.43.02v-39.99ZM944.16,368.69h-283.39v-38.69h283.39v38.69ZM944.2,325.95h-283.46v-37.27h283.46v37.27ZM995.47,368.51l-44.91.17-.13-171.87-291.31-.02c-3.05,0-4.81,1.32-4.81,3.42v168.34s-38.46.02-38.46.02l.15-187.7.19-21.28,187.26-125.27,192.04,126.85v207.33ZM1001.98,156.87l-192.21-126.6c-3.3-2.18-6.1-4.26-9.41-2.04l-190.81,124.98-.08,21.46h0v3.59h-23.35v-3.58h-6.51v10.08h29.85l-.06,183.06c-1.58.45-3.42.55-4.67.37l-.1-20.69-6.79-1.09-.09-151.55-130.9.04-.13,151.55-7.65.87-.24,21.34-176.36.03v-183.94h31.34s.04-10.1.04-10.1l272.25.02v-7.18h.02c-.04-5.92-.01-14.62-.01-14.62L803.82,6.32l220.63,147.22-.02,24.49-22.45-.12v-21.04Z"/>
</svg>